<?xml version="1.0" encoding="UTF-8"?>
<svg version="1.1" xmlns="http://www.w3.org/2000/svg" width="512" height="512">
<path d="M0 0 C4.84528565 4.64507645 9.61218615 9.36696095 14.35784912 14.11355591 C16.84124717 16.5925852 19.34023307 19.05513155 21.840271 21.5173645 C34.5607612 34.14709769 46.06239816 47.36999489 55.105896 62.91970825 C55.56351318 63.68476685 56.02113037 64.44982544 56.49261475 65.23806763 C62.27674678 74.94408147 62.27674678 74.94408147 60.855896 80.98220825 C58.57961383 84.37019899 55.71410686 87.05585014 52.762146 89.85720825 C51.94089233 90.66714233 51.11963867 91.47707642 50.27349854 92.31155396 C47.65250555 94.88785324 45.0050598 97.43491689 42.355896 99.98220825 C40.57152574 101.72644393 38.78895073 103.47251819 37.00823975 105.2204895 C32.64471299 109.49592911 28.25914561 113.74771097 23.855896 117.98220825 C26.62112716 120.328465 29.38273687 122.35296945 32.53948975 124.12283325 C34.18111084 125.04322388 34.18111084 125.04322388 35.855896 125.98220825 C36.25989844 125.57544043 36.66390089 125.1686726 37.08014584 124.74957848 C46.93861387 114.82468148 56.80551113 104.90823056 66.68170071 95.00096703 C71.45767126 90.20956759 76.23081244 85.41541351 80.99725342 80.61453247 C85.60041107 75.97813065 90.21151144 71.3497199 94.82744026 66.72603226 C96.58384666 64.96409918 98.33761832 63.19953542 100.08865166 61.43226242 C102.54890169 58.95011463 105.01850532 56.47763727 107.49041748 54.0071106 C108.20611908 53.28062317 108.92182068 52.55413574 109.65921021 51.80563354 C120.23326015 41.29519707 130.80784295 36.02084253 145.855896 35.98220825 C159.18804182 36.8304499 169.55614009 44.02927533 178.293396 53.66970825 C198.77135841 77.9331292 208.98179172 106.4443853 206.39105225 138.24783325 C202.89104987 172.61149298 184.373428 195.83992513 160.72454834 219.48416138 C158.24551905 221.96755943 155.7829727 224.46654533 153.32073975 226.96658325 C140.69100656 239.68707345 127.46810935 251.18871042 111.918396 260.23220825 C111.1533374 260.68982544 110.38827881 261.14744263 109.60003662 261.618927 C99.89402278 267.40305904 99.89402278 267.40305904 93.855896 265.98220825 C90.46790525 263.70592609 87.78225411 260.84041912 84.980896 257.88845825 C84.17096191 257.06720459 83.36102783 256.24595093 82.52655029 255.39981079 C79.95025101 252.7788178 77.40318736 250.13137205 74.855896 247.48220825 C73.11166032 245.697838 71.36558606 243.91526299 69.61761475 242.134552 C65.34217514 237.77102524 61.09039328 233.38545787 56.855896 228.98220825 C54.50963925 231.74743941 52.4851348 234.50904912 50.715271 237.665802 C49.79488037 239.3074231 49.79488037 239.3074231 48.855896 240.98220825 C49.26174203 241.38436711 49.66758806 241.78652597 50.08573246 242.20087147 C59.99722216 252.0237111 69.89725667 261.85797065 79.78532505 271.70438862 C84.56748964 276.46599895 89.35330168 281.22382827 94.14813232 285.97268677 C98.78002455 290.56093343 103.40191158 295.15904693 108.01719475 299.76399803 C109.77462182 301.51406736 111.53555019 303.26062831 113.30011177 305.0035038 C138.40284011 329.81008276 138.40284011 329.81008276 138.94573975 349.1892395 C138.30262724 362.03499955 132.3182676 372.77539732 123.1449585 381.634552 C100.07133771 402.40081071 71.89178769 413.23282453 40.793396 411.85720825 C5.13390579 409.49444103 -19.4391883 391.06235763 -43.92242432 366.57449341 C-46.49598044 364.00529268 -49.08510695 361.4525348 -51.675354 358.900177 C-64.55562783 346.10881736 -76.23500082 332.79319758 -85.394104 317.04470825 C-85.85172119 316.27964966 -86.30933838 315.51459106 -86.78082275 314.72634888 C-92.56495479 305.02033503 -92.56495479 305.02033503 -91.144104 298.98220825 C-88.86782184 295.59421751 -86.00231487 292.90856636 -83.050354 290.10720825 C-82.22910034 289.29727417 -81.40784668 288.48734009 -80.56170654 287.65286255 C-77.94071356 285.07656326 -75.2932678 282.52949962 -72.644104 279.98220825 C-70.85973375 278.23797257 -69.07715874 276.49189831 -67.29644775 274.743927 C-62.932921 270.4684874 -58.54735362 266.21670554 -54.144104 261.98220825 C-56.90933517 259.63595151 -59.67094487 257.61144706 -62.82769775 255.84158325 C-64.46931885 254.92119263 -64.46931885 254.92119263 -66.144104 253.98220825 C-66.54810645 254.38897608 -66.9521089 254.7957439 -67.36835384 255.21483803 C-77.22682188 265.13973502 -87.09371913 275.05618595 -96.96990871 284.96344948 C-101.74587927 289.75484892 -106.51902045 294.549003 -111.28546143 299.34988403 C-115.88861908 303.98628585 -120.49971945 308.61469661 -125.11564827 313.23838425 C-126.87205467 315.00031732 -128.62582633 316.76488108 -130.37685966 318.53215408 C-132.8371097 321.01430188 -135.30671333 323.48677924 -137.77862549 325.95730591 C-138.49432709 326.68379333 -139.21002869 327.41028076 -139.94741821 328.15878296 C-150.52158755 338.6693381 -161.09339853 343.94265318 -176.144104 343.98220825 C-189.05112206 343.07852053 -200.01991532 335.91726513 -208.3862915 326.44314575 C-210.70639752 323.66995506 -212.93850232 320.84709305 -215.144104 317.98220825 C-215.7525415 317.21263794 -216.360979 316.44306763 -216.987854 315.650177 C-233.73650907 293.30594854 -239.54310112 264.33254112 -236.144104 236.98220825 C-231.29111804 204.64691758 -213.4907642 182.95384947 -191.01275635 160.48025513 C-188.53372706 157.99685708 -186.0711807 155.49787117 -183.60894775 152.99783325 C-170.97921457 140.27734305 -157.75631736 128.77570608 -142.206604 119.73220825 C-141.44154541 119.27459106 -140.67648682 118.81697388 -139.88824463 118.3454895 C-130.18223079 112.56135747 -130.18223079 112.56135747 -124.144104 113.98220825 C-120.75611326 116.25849041 -118.07046212 119.12399739 -115.269104 122.07595825 C-114.45916992 122.89721191 -113.64923584 123.71846558 -112.8147583 124.56460571 C-110.23845901 127.1855987 -107.69139537 129.83304445 -105.144104 132.48220825 C-103.39986832 134.26657851 -101.65379406 136.04915352 -99.90582275 137.8298645 C-95.63038315 142.19339126 -91.37860129 146.57895864 -87.144104 150.98220825 C-84.79784726 148.21697709 -82.77334281 145.45536738 -81.003479 142.2986145 C-80.08308838 140.65699341 -80.08308838 140.65699341 -79.144104 138.98220825 C-79.55087183 138.5782058 -79.95763966 138.17420336 -80.37673378 137.75795841 C-90.30163077 127.89949038 -100.2180817 118.03259312 -110.12534523 108.15640354 C-114.91674467 103.38043299 -119.71089875 98.6072918 -124.51177979 93.84085083 C-129.1481816 89.23769318 -133.77659236 84.62659281 -138.40028 80.01066399 C-140.16221307 78.25425759 -141.92677683 76.50048593 -143.69404984 74.74945259 C-146.17619763 72.28920256 -148.64867499 69.81959892 -151.11920166 67.34768677 C-151.84568909 66.63198517 -152.57217651 65.91628357 -153.32067871 65.17889404 C-163.83111518 54.6048441 -169.10546972 44.0302613 -169.144104 28.98220825 C-168.29586236 15.65006242 -161.09703693 5.28196416 -151.456604 -3.45529175 C-106.03899144 -41.78707378 -43.39319965 -40.83684374 0 0 Z " fill="#060400" transform="translate(271.14410400390625,66.01779174804688)"/>
<path d="M0 0 C5.134836 4.30302917 9.96247061 8.80425479 14.70776367 13.53076172 C15.44363205 14.2600589 16.17950043 14.98935608 16.93766785 15.74075317 C19.35066018 18.13417322 21.75974228 20.53147263 24.16796875 22.9296875 C24.99503138 23.7526746 25.822094 24.5756617 26.67421913 25.4235878 C31.04546628 29.77405018 35.41348261 34.12772797 39.77905273 38.48388672 C44.27965884 42.97339982 48.79182352 47.45110883 53.30665112 51.9263134 C56.78690663 55.38041062 60.25823397 58.84337713 63.72722816 62.30878067 C65.3868008 63.96349125 67.04974261 65.6148301 68.71614647 67.26266098 C71.04711768 69.56924261 73.36509186 71.88817972 75.68041992 74.21044922 C76.36569763 74.88291687 77.05097534 75.55538452 77.75701904 76.24822998 C83.29685387 81.84865723 87.5737984 87.71755719 87.5625 95.875 C87.17193712 105.57804656 82.64907557 112.20246236 75.70703125 118.70703125 C53.87788544 137.19723123 29.34844606 144.39813765 1 143 C-28.10527294 140.49568451 -49.2713928 120.89273829 -68.9375 101.25 C-69.43400055 100.7545871 -69.9305011 100.25917419 -70.44204712 99.74874878 C-75.6686784 94.52082 -80.79086575 89.23960141 -85.60229492 83.62304688 C-87.23438981 81.72782123 -88.96197096 79.9349955 -90.6875 78.125 C-98.42421704 69.45324114 -104.82302064 59.15116938 -110.3125 48.9375 C-112.36439453 45.38169465 -112.54503059 45.128908 -116.75 43.9375 C-117.8225 43.958125 -118.895 43.97875 -120 44 C-120.66 43.67 -121.32 43.34 -122 43 C-121.58657349 42.59101471 -121.17314697 42.18202942 -120.74719238 41.76065063 C-116.45910203 37.51668462 -112.17797077 33.26579173 -107.90087891 29.01074219 C-106.30208228 27.42202543 -104.70149831 25.83510531 -103.09912109 24.25 C-100.80097749 21.97601746 -98.50926378 19.69572688 -96.21875 17.4140625 C-95.49691528 16.70255035 -94.77508057 15.99103821 -94.03137207 15.25796509 C-93.37068726 14.59743134 -92.71000244 13.93689758 -92.02929688 13.25634766 C-91.44305542 12.67454742 -90.85681396 12.09274719 -90.25280762 11.49331665 C-88.78576093 10.06950485 -88.78576093 10.06950485 -89 8 C-85.40365777 9.13568702 -81.95919986 10.4476466 -78.5 11.9375 C-57.66043226 20.24222326 -36.28730705 18.01471369 -15.83203125 9.76171875 C-10.07721459 7.25678342 -5.02110236 3.74680744 0 0 Z " fill="#F48601" transform="translate(306,318)"/>
<path d="M0 0 C4.83298806 4.02748053 9.38110004 8.24379413 13.80859375 12.7109375 C14.42017838 13.32393707 15.031763 13.93693665 15.66188049 14.56851196 C17.58947559 16.50164564 19.51353928 18.43824987 21.4375 20.375 C22.75432404 21.69684699 24.07137926 23.01846372 25.38867188 24.33984375 C28.59512373 27.55724299 31.79841629 30.77775681 35 34 C34.7995256 34.60115128 34.59905121 35.20230255 34.39250183 35.82167053 C34.1265773 36.61923264 33.86065277 37.41679474 33.58666992 38.23852539 C33.19314583 39.4186898 33.19314583 39.4186898 32.79167175 40.62269592 C28.44286368 53.68169306 25.98155902 65.17257675 27 79 C27.08378906 80.14082031 27.16757813 81.28164063 27.25390625 82.45703125 C28.70639119 94.85666584 33.42419688 106.52518647 40.484375 116.765625 C41.86054714 118.79441485 42.92994618 120.80102209 44 123 C33.47934388 133.63769251 22.94420769 144.26087978 12.39189243 154.86716843 C7.49209461 159.79269823 2.59705881 164.72278839 -2.28686523 169.6640625 C-7.00217745 174.43471807 -11.73058437 179.19202641 -16.46718025 183.94156647 C-18.27002456 185.75363271 -20.06847018 187.57008651 -21.86236382 189.3910141 C-24.38029744 191.94536496 -26.91357412 194.48351363 -29.45092773 197.01855469 C-30.18533081 197.77093414 -30.91973389 198.5233136 -31.6763916 199.29849243 C-37.7053364 205.26843545 -44.2451159 209.57465956 -53 209.5625 C-62.42176424 209.18037521 -68.37019317 204.35695137 -74.67578125 197.69921875 C-93.42348364 175.92667698 -100.41076195 151.60441477 -99 123 C-96.6004183 95.11194812 -78.53112883 74.11243103 -59.5012207 55.29541016 C-57.79765184 53.61031284 -56.10243734 51.91713385 -54.40820312 50.22265625 C-48.77242468 44.60513366 -43.07261251 39.14861652 -37 34 C-36.09636719 33.19175781 -35.19273438 32.38351563 -34.26171875 31.55078125 C-24.75218725 23.28225083 -14.07574343 16.35169594 -2.984375 10.375 C-0.58890021 9.04544168 -0.58890021 9.04544168 -0.1875 5.4375 C-0.08872443 3.62661461 0 1.81357727 0 0 Z " fill="#F48601" transform="translate(150,184)"/>
<path d="M0 0 C17.56140541 10.08310358 28.35007868 31.30414187 33.75 50.125 C39.82388544 73.40624801 35.63141091 98.49849989 24 119.3046875 C15.73355845 132.28988944 4.88375354 143.16587244 -5.9375 154 C-6.4329129 154.49650055 -6.92832581 154.9930011 -7.43875122 155.50454712 C-12.66668 160.7311784 -17.94789859 165.85336575 -23.56445312 170.66479492 C-25.45967877 172.29688981 -27.2525045 174.02447096 -29.0625 175.75 C-37.73425886 183.48671704 -48.03633062 189.88552064 -58.25 195.375 C-61.80580535 197.42689453 -62.058592 197.60753059 -63.25 201.8125 C-63.229375 202.885 -63.20875 203.9575 -63.1875 205.0625 C-63.5175 205.7225 -63.8475 206.3825 -64.1875 207.0625 C-64.59648529 206.64907349 -65.00547058 206.23564697 -65.42684937 205.80969238 C-69.67081538 201.52160203 -73.92170827 197.24047077 -78.17675781 192.96337891 C-79.76547457 191.36458228 -81.35239469 189.76399831 -82.9375 188.16162109 C-85.21148254 185.86347749 -87.49177312 183.57176378 -89.7734375 181.28125 C-90.48494965 180.55941528 -91.19646179 179.83758057 -91.92953491 179.09387207 C-92.59006866 178.43318726 -93.25060242 177.77250244 -93.93115234 177.09179688 C-94.51295258 176.50555542 -95.09475281 175.91931396 -95.69418335 175.31530762 C-97.11799515 173.84826093 -97.11799515 173.84826093 -99.1875 174.0625 C-98.27904979 171.26144518 -97.35304356 168.48093776 -96.26953125 165.7421875 C-88.26033068 145.1821707 -87.55562387 124.4771079 -96.03076172 104.02783203 C-99.04314703 97.24869936 -102.59868334 90.90281211 -107.1875 85.0625 C-102.88447083 79.927664 -98.38324521 75.10002939 -93.65673828 70.35473633 C-92.9274411 69.61886795 -92.19814392 68.88299957 -91.44674683 68.12483215 C-89.05332678 65.71183982 -86.65602737 63.30275772 -84.2578125 60.89453125 C-83.4348254 60.06746862 -82.6118383 59.240406 -81.7639122 58.38828087 C-77.41344982 54.01703372 -73.05977203 49.64901739 -68.70361328 45.28344727 C-64.21410018 40.78284116 -59.73639117 36.27067648 -55.2611866 31.75584888 C-51.80708938 28.27559337 -48.34412287 24.80426603 -44.87871933 21.33527184 C-43.22400875 19.6756992 -41.5726699 18.01275739 -39.92483902 16.34635353 C-37.61825739 14.01538232 -35.29932028 11.69740814 -32.97705078 9.38208008 C-32.30458313 8.69680237 -31.63211548 8.01152466 -30.93927002 7.30548096 C-22.13201916 -1.40648206 -11.98197472 -5.36673207 0 0 Z " fill="#F48601" transform="translate(425.1875,120.9375)"/>
<path d="M0 0 C3.48161596 2.63858316 6.71833948 5.48772486 9.90234375 8.4765625 C11.95251641 10.38716214 14.03107141 12.21868152 16.15625 14.04296875 C21.17273328 18.41559077 25.85370335 23.10592078 30.546875 27.8203125 C31.40603516 28.67560547 32.26519531 29.53089844 33.15039062 30.41210938 C37.6156343 34.88417542 41.93136413 39.42201222 46.04711914 44.21801758 C47.69410504 46.12574593 49.43309174 47.93391398 51.171875 49.7578125 C58.90859204 58.42957136 65.30739564 68.73164312 70.796875 78.9453125 C72.84876953 82.50111785 73.02940559 82.7539045 77.234375 83.9453125 C78.843125 83.914375 78.843125 83.914375 80.484375 83.8828125 C81.144375 84.2128125 81.804375 84.5428125 82.484375 84.8828125 C71.264375 96.1028125 60.044375 107.3228125 48.484375 118.8828125 C38.484375 115.8828125 38.484375 115.8828125 34.546875 114.3203125 C16.90939511 107.65804375 -4.30845796 110.06750269 -21.515625 116.8828125 C-26.34398637 119.26905422 -30.93012527 122.06319335 -35.515625 124.8828125 C-37.18150504 125.88412238 -38.84804019 126.88434433 -40.515625 127.8828125 C-51.15331751 117.36215638 -61.77650478 106.82702019 -72.38279343 96.27470493 C-77.30832323 91.37490711 -82.23841339 86.47987131 -87.1796875 81.59594727 C-91.95034307 76.88063505 -96.70765141 72.15222813 -101.45719147 67.41563225 C-103.26925771 65.61278794 -105.08571151 63.81434232 -106.9066391 62.02044868 C-109.46098996 59.50251506 -111.99913863 56.96923838 -114.53417969 54.43188477 C-115.66274887 53.33028015 -115.66274887 53.33028015 -116.81411743 52.2064209 C-122.78406045 46.1774761 -127.09028456 39.6376966 -127.078125 30.8828125 C-126.69062046 21.32840357 -121.75362781 15.45368358 -115.015625 9.0703125 C-102.51427363 -1.86836995 -88.70254516 -9.37604577 -72.515625 -13.1171875 C-71.84772949 -13.29306396 -71.17983398 -13.46894043 -70.49169922 -13.65014648 C-46.74263586 -19.5913749 -20.06897307 -13.56176059 0 0 Z " fill="#F48601" transform="translate(245.515625,66.1171875)"/>
<path d="M0 0 C0.99386719 0.3403125 1.98773438 0.680625 3.01171875 1.03125 C19.19778475 7.16578974 31.05953763 18.5861578 38.48046875 34.09375 C45.73487586 50.94269554 46.36081718 67.90938968 39.77832031 85.11767578 C33.3326409 100.70619156 21.45991351 113.0678379 6 119.75 C4.00501273 120.51323377 2.00526641 121.2641966 0 122 C-0.7528125 122.32097656 -1.505625 122.64195312 -2.28125 122.97265625 C-15.01518577 127.79271996 -31.71625005 126.15452864 -44 121 C-60.74007589 113.23337276 -73.23187499 101.15047425 -79.9921875 83.82421875 C-80.32476562 82.89222656 -80.65734375 81.96023438 -81 81 C-81.35320312 80.03707031 -81.70640625 79.07414062 -82.0703125 78.08203125 C-87.12211203 61.33467902 -83.93508952 44.58994909 -76.375 29.25 C-68.24302531 15.40479181 -55.85698504 5.74498147 -41 0 C-40.17242187 -0.32097656 -39.34484375 -0.64195312 -38.4921875 -0.97265625 C-26.28874687 -4.98449071 -12.02428275 -4.17066031 0 0 Z " fill="#F0D68F" transform="translate(276,195)"/>
<path d="M0 0 C4.56030824 3.80475422 8.85089392 7.74969621 13 12 C10.29909529 21.90331726 -0.91285452 28.04235728 -9.19140625 32.85546875 C-26.45850711 42.06851801 -45.60390411 45.03873996 -64.8125 40.5 C-77.844783 36.43187223 -88.93298094 30.21388185 -99 21 C-98.61328125 20.55269531 -98.2265625 20.10539062 -97.828125 19.64453125 C-95.41308192 16.84092925 -93.03122244 14.03989534 -90.75 11.125 C-89 9 -89 9 -87 8 C-85.25 8.85546875 -85.25 8.85546875 -83 10.1875 C-64.72450219 19.61491818 -43.08318625 18.81662204 -23.92578125 12.74609375 C-14.9856366 9.71948228 -7.59402827 5.66675594 0 0 Z " fill="#DB7A1C" transform="translate(306,318)"/>
<path d="M0 0 C13.03263713 3.45042706 24.4261878 11.22587265 31.32421875 22.9609375 C32.06604828 24.46571625 32.77380323 25.98770184 33.44921875 27.5234375 C34.03509766 28.80347656 34.03509766 28.80347656 34.6328125 30.109375 C37.40781887 36.81163952 38.69016871 43.29355511 37.44921875 50.5234375 C35.32421875 53.7734375 35.32421875 53.7734375 32.44921875 55.5234375 C28.58614621 56.32824428 27.05499744 55.89516533 23.69921875 53.8359375 C20.43950507 50.21517959 20.59280209 45.45967739 20.03125 40.8203125 C18.49991771 32.14618866 13.02979231 25.97615643 6.07421875 20.8984375 C1.11433327 17.84474128 -4.39564874 17.27941096 -10.0625 16.4921875 C-14.20362771 15.34213188 -15.88381342 13.84588898 -18.55078125 10.5234375 C-19.37708991 6.55715591 -18.89742093 5.07327975 -16.73828125 1.6484375 C-11.41748407 -1.89876062 -6.11250639 -1.14199966 0 0 Z " fill="#060401" transform="translate(266.55078125,208.4765625)"/>
<path d="M0 0 C0.66 0.33 1.32 0.66 2 1 C-15.49 18.49 -32.98 35.98 -51 54 C-51 49.85088428 -49.40316852 48.90905103 -46.58203125 45.90234375 C-45.85582329 45.12660255 -45.85582329 45.12660255 -45.11494446 44.33518982 C-38.54106297 37.36939642 -31.75492784 30.60556698 -24.97338867 23.84301758 C-22.67053661 21.54557647 -20.37314548 19.24276994 -18.07617188 16.93945312 C-16.59667508 15.46061638 -15.11686852 13.98208945 -13.63671875 12.50390625 C-12.95848557 11.82364883 -12.28025238 11.14339142 -11.58146667 10.44252014 C-7.86742035 6.74663173 -4.0818685 3.2862735 0 0 Z " fill="#2F1B00" transform="translate(108,200)"/>
<path d="M0 0 C0.33 0 0.66 0 1 0 C2.63548662 10.01735556 3.16354657 20.28428584 0 30 C-1.14949588 29.21366078 -2.29448989 28.42073742 -3.4375 27.625 C-4.07558594 27.18414062 -4.71367187 26.74328125 -5.37109375 26.2890625 C-7 25 -7 25 -8 23 C-7.109375 20.8203125 -7.109375 20.8203125 -5.75 18.125 C-2.95161149 12.23980968 -1.36379552 6.35329134 0 0 Z " fill="#D0761D" transform="translate(334,270)"/>
<path d="M0 0 C2.17581687 2.84881728 4.20937999 5.76084088 6.1875 8.75 C6.71730469 9.54921875 7.24710938 10.3484375 7.79296875 11.171875 C8.19128906 11.77515625 8.58960938 12.3784375 9 13 C7.35 14.65 5.7 16.3 4 18 C3.32187886 16.1291122 2.6580054 14.25305707 2 12.375 C1.443125 10.80878906 1.443125 10.80878906 0.875 9.2109375 C-0.00483564 5.98225494 -0.15988262 3.32755706 0 0 Z " fill="#D1771E" transform="translate(185,293)"/>
<path d="M0 0 C0.66 0.33 1.32 0.66 2 1 C-3.61 6.61 -9.22 12.22 -15 18 C-15 13.37660079 -12.1229592 11.2080713 -9 8 C-6.39099109 5.59533969 -3.70991619 3.28952346 -1 1 C-0.67 0.67 -0.34 0.34 0 0 Z " fill="#3E2600" transform="translate(125,58)"/>
</svg>
